<svg xmlns="http://www.w3.org/2000/svg" version="1.1" xmlns:xlink="http://www.w3.org/1999/xlink" xmlns:svgjs="http://svgjs.dev/svgjs" width="1000" height="1000" viewBox="0 0 1000 1000"><rect width="1000" height="1000" fill="#ffffff"></rect><g transform="matrix(0.7,0,0,0.7,149.84897959183667,150.19913061224486)"><svg viewBox="0 0 343 343" data-background-color="#ffffff" preserveAspectRatio="xMidYMid meet" height="999" width="1000" xmlns="http://www.w3.org/2000/svg" xmlns:xlink="http://www.w3.org/1999/xlink"><g id="tight-bounds" transform="matrix(1,0,0,1,0.0740000000000407,0.07400000000001228)"><svg viewBox="0 0 342.85155851775386 342.85155851775386" height="342.85155851775386" width="342.85155851775386"><g><svg></svg></g><g><svg viewBox="0 0 342.85155851775386 342.85155851775386" height="342.85155851775386" width="342.85155851775386"><g><path d="M0 171.426c0-94.676 76.75-171.426 171.426-171.426 94.676 0 171.426 76.75 171.426 171.426 0 94.676-76.75 171.426-171.426 171.426-94.676 0-171.426-76.75-171.426-171.426zM171.426 339.626c92.895 0 168.2-75.306 168.2-168.2 0-92.895-75.306-168.2-168.2-168.201-92.895 0-168.2 75.306-168.201 168.201 0 92.895 75.306 168.2 168.201 168.2z" data-fill-palette-color="tertiary" fill="#8abe53" stroke="transparent"></path><ellipse rx="164.56874808852186" ry="164.56874808852186" cx="171.42577925887693" cy="171.42577925887693" fill="#8abe53" stroke="transparent" stroke-width="0" fill-opacity="1" data-fill-palette-color="tertiary"></ellipse></g><g transform="matrix(1,0,0,1,64.84655864529837,153.5430195487853)"><svg viewBox="0 0 213.1584412271571 35.765519420183246" height="35.765519420183246" width="213.1584412271571"><g><svg viewBox="0 0 213.1584412271571 35.765519420183246" height="35.765519420183246" width="213.1584412271571"><g><svg viewBox="0 0 213.1584412271571 35.765519420183246" height="35.765519420183246" width="213.1584412271571"><g><svg viewBox="0 0 213.1584412271571 35.765519420183246" height="35.765519420183246" width="213.1584412271571"><g id="textblocktransform"><svg viewBox="0 0 213.1584412271571 35.765519420183246" height="35.765519420183246" width="213.1584412271571" id="textblock"><g><svg viewBox="0 0 213.1584412271571 35.765519420183246" height="35.765519420183246" width="213.1584412271571"><g transform="matrix(1,0,0,1,0,0)"><svg width="213.1584412271571" viewBox="1.4500000476837158 -35.45000076293945 265.492919921875 44.55000305175781" height="35.765519420183246" data-palette-color="#ffffff"><path d="M3.8-12.2L3.8-12.2Q4.75-11.45 7.08-10.15 9.4-8.85 11.53-8.85 13.65-8.85 13.65-10.5L13.65-10.5Q13.65-11.25 13.05-11.83 12.45-12.4 10.85-13.15 9.25-13.9 8.45-14.33 7.65-14.75 6.33-15.73 5-16.7 4.3-17.75L4.3-17.75Q2.3-20.6 2.3-25 2.3-29.4 5.58-32.43 8.85-35.45 14.15-35.45L14.15-35.45Q17.75-35.45 20.8-34.68 23.85-33.9 23.95-32.65L23.95-32.65Q23.95-32.5 23.95-32.35L23.95-32.35Q23.95-30.6 22.85-27.93 21.75-25.25 21.3-24.95L21.3-24.95Q18.1-26.6 15.58-26.6 13.05-26.6 13.05-24.8L13.05-24.8Q13.05-23.7 14.9-22.85L14.9-22.85Q15.3-22.65 16.05-22.3 16.8-21.95 17.78-21.48 18.75-21 19.88-20.28 21-19.55 22.3-18.35L22.3-18.35Q24.95-15.85 24.95-11.75L24.95-11.75Q24.95-6.4 22-3 19.05 0.4 12.9 0.5L12.9 0.5Q9.9 0.5 7.48 0 5.05-0.5 3.25-1.95 1.45-3.4 1.45-5.45 1.45-7.5 2.2-9.53 2.95-11.55 3.8-12.2ZM40.3-18L40.3-0.3Q40.3 0.3 36.1 0.3L36.1 0.3Q31.1 0.1 31.1-0.35L31.1-0.35 31.1-18.05 28.55-18.05Q27.55-18.05 27.55-21.5L27.55-21.5Q27.55-22.4 27.72-23.7 27.9-25 28.45-25L28.45-25 31.1-25 31.1-29.4Q31.1-30.4 35.32-30.4 39.55-30.4 39.55-29.6L39.55-29.6 39.55-26.4 39.6-25 43.85-25Q44.7-25 44.7-21.5 44.7-18 43.85-18L43.85-18 40.3-18ZM46.95-9.95L46.95-24.7Q46.95-25.25 51.25-25.25 55.55-25.25 55.55-24.7L55.55-24.7 55.55-10.1Q55.55-7.6 57.15-7.6L57.15-7.6Q58.35-7.6 59.85-8.65L59.85-8.65 59.85-24.7Q59.85-25.2 64.1-25.2 68.35-25.2 68.35-24.7L68.35-24.7 68.35-8.3 69.65-8.3Q71.35-8.3 71.35-5.05L71.35-5.05Q71.35-3.4 70.65-1.7L70.65-1.7Q69.65 0.5 67.95 0.5L67.95 0.5Q64.6 0.5 63-2.25L63-2.25 62.95-2.2Q59.9 0.5 56.4 0.5L56.4 0.5Q51.55 0.5 49.25-1.93 46.95-4.35 46.95-9.95L46.95-9.95ZM87.04-25.2L87.04-34.7Q87.04-35.45 90.99-35.45L90.99-35.45Q92.34-35.45 94.12-35.27 95.89-35.1 95.89-34.8L95.89-34.8 95.89-8.45 97.64-8.45Q98.89-8.45 99.29-6.2L99.29-6.2Q99.39-5.55 99.39-4.42 99.39-3.3 98.69-1.7L98.69-1.7Q97.69 0.5 95.49 0.5L95.49 0.5Q93.84 0.5 92.57-0.15 91.29-0.8 90.84-1.5L90.84-1.5 90.39-2.15Q87.64 0.5 83.49 0.5 79.34 0.5 76.39-2.95 73.44-6.4 73.44-12.58 73.44-18.75 76.54-22.13 79.64-25.5 84.29-25.5L84.29-25.5Q85.64-25.5 87.04-25.2L87.04-25.2ZM85.39-17.5L85.39-17.5Q82.59-17.5 82.59-12.45L82.59-12.45Q82.59-9.9 83.39-8.78 84.19-7.65 85.17-7.65 86.14-7.65 87.04-8.5L87.04-8.5 87.04-17Q86.19-17.5 85.39-17.5ZM109.39-2L100.89-24.75Q100.89-25.3 105.47-25.3 110.04-25.3 110.19-24.8L110.19-24.8 113.79-13 117.24-24.9Q117.44-25.3 120.34-25.3L120.34-25.3Q126.99-25.3 126.69-24.65L126.69-24.65 114.94 8.8Q114.89 9.1 112.22 9.1 109.54 9.1 107.24 8.93 104.94 8.75 105.04 8.5L105.04 8.5 109.39-2ZM154.29-25.95L154.29-25.95Q154.29-20.75 149.79-18.05L149.79-18.05Q152.24-17.15 153.89-14.95 155.54-12.75 155.54-8.72 155.54-4.7 152.56-2.35 149.59 0 144.04 0L144.04 0 132.24 0Q131.39 0 130.84-0.58 130.29-1.15 130.29-2.1L130.29-2.1 130.29-34.1Q130.29-34.65 130.46-34.83 130.64-35 131.19-35L131.19-35 142.59-35Q154.29-35 154.29-25.95ZM140.94-26.9L139.89-26.9 139.89-20.35 140.14-20.35Q144.94-20.35 144.94-23.55L144.94-23.55Q144.94-25.3 144.01-26.1 143.09-26.9 140.94-26.9L140.94-26.9ZM140.94-14.45L139.89-14.45 139.89-7.95 140.79-7.95Q142.94-7.95 143.94-8.75 144.94-9.55 144.94-11.3 144.94-13.05 144.01-13.75 143.09-14.45 140.94-14.45L140.94-14.45ZM158.94-9.95L158.94-24.7Q158.94-25.25 163.24-25.25 167.53-25.25 167.53-24.7L167.53-24.7 167.53-10.1Q167.53-7.6 169.13-7.6L169.13-7.6Q170.34-7.6 171.84-8.65L171.84-8.65 171.84-24.7Q171.84-25.2 176.09-25.2 180.34-25.2 180.34-24.7L180.34-24.7 180.34-8.3 181.63-8.3Q183.34-8.3 183.34-5.05L183.34-5.05Q183.34-3.4 182.63-1.7L182.63-1.7Q181.63 0.5 179.94 0.5L179.94 0.5Q176.59 0.5 174.99-2.25L174.99-2.25 174.94-2.2Q171.88 0.5 168.38 0.5L168.38 0.5Q163.53 0.5 161.24-1.93 158.94-4.35 158.94-9.95L158.94-9.95ZM199.03-25.2L199.03-34.7Q199.03-35.45 202.98-35.45L202.98-35.45Q204.33-35.45 206.11-35.27 207.88-35.1 207.88-34.8L207.88-34.8 207.88-8.45 209.63-8.45Q210.88-8.45 211.28-6.2L211.28-6.2Q211.38-5.55 211.38-4.42 211.38-3.3 210.68-1.7L210.68-1.7Q209.68 0.5 207.48 0.5L207.48 0.5Q205.83 0.5 204.56-0.15 203.28-0.8 202.83-1.5L202.83-1.5 202.38-2.15Q199.63 0.5 195.48 0.5 191.33 0.5 188.38-2.95 185.43-6.4 185.43-12.58 185.43-18.75 188.53-22.13 191.63-25.5 196.28-25.5L196.28-25.5Q197.63-25.5 199.03-25.2L199.03-25.2ZM197.38-17.5L197.38-17.5Q194.58-17.5 194.58-12.45L194.58-12.45Q194.58-9.9 195.38-8.78 196.18-7.65 197.16-7.65 198.13-7.65 199.03-8.5L199.03-8.5 199.03-17Q198.18-17.5 197.38-17.5ZM227.28-25.2L227.28-34.7Q227.28-35.45 231.23-35.45L231.23-35.45Q232.58-35.45 234.35-35.27 236.13-35.1 236.13-34.8L236.13-34.8 236.13-8.45 237.88-8.45Q239.13-8.45 239.53-6.2L239.53-6.2Q239.63-5.55 239.63-4.42 239.63-3.3 238.93-1.7L238.93-1.7Q237.93 0.5 235.73 0.5L235.73 0.5Q234.08 0.5 232.81-0.15 231.53-0.8 231.08-1.5L231.08-1.5 230.63-2.15Q227.88 0.5 223.73 0.5 219.58 0.5 216.63-2.95 213.68-6.4 213.68-12.58 213.68-18.75 216.78-22.13 219.88-25.5 224.53-25.5L224.53-25.5Q225.88-25.5 227.28-25.2L227.28-25.2ZM225.63-17.5L225.63-17.5Q222.83-17.5 222.83-12.45L222.83-12.45Q222.83-9.9 223.63-8.78 224.43-7.65 225.41-7.65 226.38-7.65 227.28-8.5L227.28-8.5 227.28-17Q226.43-17.5 225.63-17.5ZM249.63-2L241.13-24.75Q241.13-25.3 245.7-25.3 250.28-25.3 250.43-24.8L250.43-24.8 254.03-13 257.48-24.9Q257.68-25.3 260.58-25.3L260.58-25.3Q267.23-25.3 266.93-24.65L266.93-24.65 255.18 8.8Q255.13 9.1 252.45 9.1 249.78 9.1 247.48 8.93 245.18 8.75 245.28 8.5L245.28 8.5 249.63-2Z" opacity="1" transform="matrix(1,0,0,1,0,0)" fill="#ffffff" class="undefined-text-0" data-fill-palette-color="quaternary" id="text-0"></path></svg></g></svg></g></svg></g></svg></g><g></g></svg></g></svg></g></svg></g></svg></g><defs></defs></svg><rect width="342.85155851775386" height="342.85155851775386" fill="none" stroke="none" visibility="hidden"></rect></g></svg></g></svg>